<svg xmlns="http://www.w3.org/2000/svg" viewBox="0 0 15.52 19"><defs><style>.cls-1{fill:#173750;}</style></defs><title>Asset 4</title><g id="Layer_2" data-name="Layer 2"><g id="Layer_1-2" data-name="Layer 1"><path class="cls-1" d="M0,11.24A7.79,7.79,0,0,0,7.66,19h.2a7.79,7.79,0,0,0,7.66-7.76c0-.14,0-.29,0-.44l0-.85-.52.67a2.67,2.67,0,0,1-.48.48l-.64.49.23-.77a5.19,5.19,0,0,0,.19-.87,6.19,6.19,0,0,0-1.31-4.66l-.33-.44-.21.51C11.88,6.55,11,7.13,10.2,6.85A2.45,2.45,0,0,1,8.87,5,9,9,0,0,1,9.14.51L9.28,0,8.77.12C5.73.8,3.67,3,2.83,6.38a15.42,15.42,0,0,0-.41,3.76v.55L2,10.35A6.36,6.36,0,0,1,.83,9.15L.44,8.58l-.18.67A7.88,7.88,0,0,0,0,11.24Zm7.76,7.13a3,3,0,0,1-2.95-3c0-2.69,1.26-3.92,2.32-4.49l.47-.25-.1.53a2.86,2.86,0,0,0,.17,1.59,1.64,1.64,0,0,0,1.24,1.06,1.22,1.22,0,0,0,.86-.25l.21-.15.15.21a2.95,2.95,0,0,1-2.37,4.7ZM.67,10.56l0-.52.38.36a8.4,8.4,0,0,0,1.54,1.16l.55.32-.08-.63A15,15,0,0,1,3.46,6.5C4.16,3.69,5.67,1.84,8,1L8.39.85,8.3,1.3a8.92,8.92,0,0,0,0,3.88A3,3,0,0,0,10,7.45a2,2,0,0,0,1.67-.2,3.09,3.09,0,0,0,.85-.81l.23-.33.2.35a5.34,5.34,0,0,1,.68,3.35,4.77,4.77,0,0,1-.6,1.81l-.27.42.49.07a1.85,1.85,0,0,0,1.21-.25l.45-.25-.07.51a7.15,7.15,0,0,1-3.55,5.31l-.77.44.42-.78a3.6,3.6,0,0,0-.78-4.34l-.26-.23-.2.28a.83.83,0,0,1-.71.43,1,1,0,0,1-.73-.68,2.2,2.2,0,0,1,.29-2.16L9,9.8l-.74.09a4.65,4.65,0,0,0-2,.89,5.6,5.6,0,0,0-2,4.64,3.59,3.59,0,0,0,.41,1.67l.42.78-.77-.44A7.14,7.14,0,0,1,.63,11.24,5.17,5.17,0,0,1,.67,10.56Z"/></g></g></svg>